/* XPM */
static char * maximize_inactive_xpm[] = {
"20 24 56 1",
" 	c None",
".	c #F3F3F3",
"+	c #E4E3E4",
"@	c #E3E3E4",
"#	c #E3E2E3",
"$	c #E2E2E3",
"%	c #E2E1E2",
"&	c #E2E1E3",
"*	c #E1E0E1",
"=	c #E0DFE0",
"-	c #E0E0E1",
";	c #DFDFDF",
">	c #CBCBCB",
",	c #BBBBBB",
"'	c #B5B5B5",
")	c #BCBCBC",
"!	c #DEDDDE",
"~	c #B0B0B0",
"{	c #C3C3C3",
"]	c #C7C7C7",
"^	c #C6C6C6",
"/	c #AEAEAE",
"(	c #DDDCDD",
"_	c #A9A9A9",
":	c #DBDBDB",
"<	c #DBDADB",
"[	c #CCCCCC",
"}	c #DAD9DA",
"|	c #BABABA",
"1	c #A8A8A8",
"2	c #D9D9DA",
"3	c #B2B2B2",
"4	c #D8D8D9",
"5	c #D8D7D8",
"6	c #B1B1B1",
"7	c #D7D6D7",
"8	c #B9B9B9",
"9	c #AAAAAA",
"0	c #D4D4D5",
"a	c #C4C4C4",
"b	c #C8C8C8",
"c	c #D5D4D5",
"d	c #D4D3D4",
"e	c #ACACAC",
"f	c #D1D2D1",
"g	c #D2D1D2",
"h	c #D1D1D2",
"i	c #D6D6D6",
"j	c #D0D0D1",
"k	c #D1D0D2",
"l	c #D2D1D3",
"m	c #D0CFD0",
"n	c #D0CFD1",
"o	c #CFCECF",
"p	c #CFCED0",
"q	c #CECDCE",
"....................",
"++++@@@@++++++++++++",
"####$$$$############",
"%%%%%%%%%%%%%%%%&&&&",
"********************",
"================----",
";;;;;;;>,'')>;;;;;;;",
"!!!!!;~{]^^]{/;!!!!!",
"(((((~]^^^^^^^_:((((",
"<<<<]{^^^^^^^^^[<<<<",
"}}}}|]^^^^^^^^^1}}}}",
"2222'^^^^^^^^^^34444",
"5555'^^^^^^^^^^65555",
"77778]^^^^^^^^^97777",
"0000^{^^^^^^^^abcccc",
"ddddd/^^^^^^^^efdddd",
"gggghi9a^^^^{ehhgggg",
"hhhhhhj]1~6_]kllgggg",
"mmmmmmmmmmmmmmmmnnnn",
"mmmmmmmmmmmmmmmmmmmm",
"ooooooooppppoooooooo",
"qqqqqqqqqqqqqqqqqqqq",
"qqqqqqqqqqqqqqqqqqqq",
"qqqqqqqqqqqqqqqqqqqq"};
